<svg id="Calque_1" data-name="Calque 1" xmlns="http://www.w3.org/2000/svg" viewBox="0 0 806.11 136.63"><defs><style>.cls-1{fill:#66f;}.cls-2{fill:#29293d;}</style></defs><circle class="cls-1" cx="85.8" cy="37.18" r="35.7"/><polygon class="cls-1" points="149.58 123.51 112.19 123.51 96.21 71.34 133.6 71.34 149.58 123.51"/><polygon class="cls-2" points="112.19 123.46 74.79 123.46 37.4 1.49 74.79 1.49 112.19 123.46"/><rect class="cls-2" x="37.4" y="72.83" width="37.4" height="63.86" transform="translate(160.85 48.66) rotate(90)"/><polygon class="cls-2" points="37.4 123.46 0 123.46 37.4 1.49 74.79 1.49 37.4 123.46"/><path class="cls-1" d="M171.45,71.43H189l15.49,52H186.93Z"/><path class="cls-1" d="M248.76,71.43l15.49,52H249.83L223,99.83l7,23.64H213l-15.48-52h14.42L238.7,95.07l-7-23.64Z"/><path class="cls-1" d="M278.72,84.66l2.65,8.92h21.71L307,106.82H285.31l4.95,16.65H272.72l-15.49-52h42.3l3.94,13.23Z"/><path class="cls-1" d="M331.73,121.16a40.29,40.29,0,0,1-13.37-9.7,35.85,35.85,0,0,1-8-14q-2.32-7.82-.38-14a17.16,17.16,0,0,1,7.59-9.71q5.65-3.48,14.06-3.49a38.9,38.9,0,0,1,16.13,3.49,40.32,40.32,0,0,1,13.37,9.71,35.84,35.84,0,0,1,8,14q2.33,7.8.38,14a17.11,17.11,0,0,1-7.6,9.7q-5.66,3.5-14.05,3.5A38.72,38.72,0,0,1,331.73,121.16Zm17.34-12.3a7.59,7.59,0,0,0,2.85-4.54,13.33,13.33,0,0,0-.49-6.87,19.24,19.24,0,0,0-3.6-6.88A17.71,17.71,0,0,0,342.28,86a13.81,13.81,0,0,0-6.39-1.6,8.85,8.85,0,0,0-5.43,1.6,7.44,7.44,0,0,0-2.85,4.53,13.46,13.46,0,0,0,.48,6.88,19.13,19.13,0,0,0,3.61,6.87,17.66,17.66,0,0,0,5.55,4.54,13.78,13.78,0,0,0,6.39,1.6A8.85,8.85,0,0,0,349.07,108.86Z"/><path class="cls-1" d="M401.67,110.38h-4.76l3.9,13.09H383.26l-15.48-52h25.05a35.91,35.91,0,0,1,13.27,2.38,28,28,0,0,1,10.29,6.84,25.4,25.4,0,0,1,6,10.41,16.71,16.71,0,0,1,.38,9.73,11.67,11.67,0,0,1-5.32,6.62l15.71,16.06H414.41Zm-.1-23.82a9.85,9.85,0,0,0-5.83-1.6h-6.39L393,97.15h6.39c2.38,0,4-.53,4.88-1.6s1-2.56.44-4.49A8.08,8.08,0,0,0,401.57,86.56Z"/><path class="cls-1" d="M485.11,123.47,477.9,99.75l-5.63,19h-7.73l-16.72-18.21,6.81,22.9h-16l-15.49-52h14.42l25.2,27.73L471,71.43h14.43l15.63,52Z"/><path class="cls-1" d="M542.33,114.4H522.55l-.79,9.07H503.92l7.26-52h17.24l38.24,52H548.52Zm-8.6-12.64-9-13.08-1.16,13.08Z"/><path class="cls-1" d="M566.74,85H551.5l-4-13.6h48l4,13.6H584.29l11.44,38.44H578.18Z"/><path class="cls-1" d="M600,71.43h17.55l15.48,52H615.5Z"/><path class="cls-1" d="M702.94,130a11.55,11.55,0,0,1-5.15,4.94,17.85,17.85,0,0,1-8,1.68,31.79,31.79,0,0,1-8.74-1.16,36,36,0,0,1-8.59-3.86,103.45,103.45,0,0,1-10.76-7.7,38.66,38.66,0,0,1-13-5.09,40.91,40.91,0,0,1-10.52-9.25,35.38,35.38,0,0,1-6.4-12.12q-2.33-7.82-.38-14a17.13,17.13,0,0,1,7.6-9.71q5.65-3.48,14.05-3.49a38.87,38.87,0,0,1,16.13,3.49,40.32,40.32,0,0,1,13.37,9.71,35.71,35.71,0,0,1,8,14q2.55,8.55,0,15.13a17.41,17.41,0,0,1-9.38,9.7,10.09,10.09,0,0,0,2.77,1.67,7.68,7.68,0,0,0,2.7.48,7.26,7.26,0,0,0,6.22-3.34ZM651.75,86a7.53,7.53,0,0,0-2.85,4.53,13.36,13.36,0,0,0,.49,6.88,19.11,19.11,0,0,0,3.6,6.87,17.89,17.89,0,0,0,5.55,4.54,13.81,13.81,0,0,0,6.39,1.6,8.85,8.85,0,0,0,5.43-1.6,7.5,7.5,0,0,0,2.85-4.54,13.42,13.42,0,0,0-.48-6.87,19.26,19.26,0,0,0-3.61-6.88A17.49,17.49,0,0,0,663.57,86a13.77,13.77,0,0,0-6.38-1.6A8.86,8.86,0,0,0,651.75,86Z"/><path class="cls-1" d="M709.23,118.19q-8.61-6.47-12.09-18.14l-8.52-28.62h17.55l8.36,28.1q1.71,5.73,4.52,8.33a9.55,9.55,0,0,0,6.69,2.6q3.87,0,5.13-2.6c.85-1.74.71-4.51-.43-8.33l-8.36-28.1h17.24l8.52,28.62q3.48,11.67-1.29,18.14t-16.73,6.47A33.35,33.35,0,0,1,709.23,118.19Z"/><path class="cls-1" d="M802.17,110.23l3.94,13.24H762.84l-15.49-52h42.3l3.94,13.23H768.54l1.81,6.1h22l3.76,12.64h-22l2,6.83Z"/><path class="cls-2" d="M150.3,1.19h25.64a41.93,41.93,0,0,1,16.29,3.16,36.44,36.44,0,0,1,13,9A34.58,34.58,0,0,1,213,27.2q2.36,8,.43,13.83a15.72,15.72,0,0,1-7.64,9q-5.72,3.15-14.41,3.16H165.78Zm36.31,38.35q5.64,0,8.06-3.23t.68-9.11a17,17,0,0,0-6.09-9.1,16.28,16.28,0,0,0-10-3.23h-7.35l7.34,24.67Z"/><path class="cls-2" d="M266.49,40l3.94,13.23H227.17l-15.48-52H254l3.94,13.23H232.87l1.81,6.09h22l3.76,12.64h-22l2,6.84Z"/><path class="cls-2" d="M300,3.57a28,28,0,0,1,10.29,6.84,25.43,25.43,0,0,1,6,10.4c1.18,4,1.25,7.43.2,10.41a12.07,12.07,0,0,1-6.21,6.83,25.91,25.91,0,0,1-11.86,2.38h-7.5l3.8,12.79H277.19l-15.48-52h25.05A35.9,35.9,0,0,1,300,3.57Zm-1.85,21.74q1.31-1.61.44-4.5a8.15,8.15,0,0,0-3.12-4.5,9.88,9.88,0,0,0-5.82-1.59h-6.4l3.63,12.19h6.39C295.67,26.91,297.3,26.37,298.17,25.31Z"/><path class="cls-2" d="M361.82,44.15H342.05l-.79,9.07H323.42l7.26-52h17.25l38.22,52H368Zm-8.59-12.64-8.94-13.08-1.17,13.08Z"/><path class="cls-2" d="M424.78,1.19l15.48,52H425.84L399,29.58l7,23.64H389l-15.48-52h14.42l26.8,23.63-7-23.63Z"/><path class="cls-2" d="M484.53,1.19l15.48,52H485.59l-26.8-23.64,7,23.64H448.73l-15.48-52h14.42l26.8,23.63-7-23.63Z"/><path class="cls-2" d="M541.24,44.15H521.47l-.79,9.07H502.84l7.26-52h17.24l38.23,52H547.43Zm-8.59-12.64L523.7,18.43l-1.16,13.08Z"/><path class="cls-2" d="M593.9,25.79h15.24l6.54,22a25,25,0,0,1-9.24,4.91A38.89,38.89,0,0,1,595,54.41,38.35,38.35,0,0,1,579,51a39.5,39.5,0,0,1-13.25-9.66,36.19,36.19,0,0,1-7.94-14.09q-2.34-7.87-.44-14.08A16.71,16.71,0,0,1,565,3.46Q570.68,0,579.17,0a40.77,40.77,0,0,1,14.47,2.56A38.68,38.68,0,0,1,605.94,10l-8.29,9.89q-6.6-5.73-13.37-5.72c-3.86,0-6.59,1.16-8.17,3.49s-1.79,5.5-.59,9.51a18.45,18.45,0,0,0,6.19,9.44,15.66,15.66,0,0,0,10.09,3.57,14,14,0,0,0,6-1.26Z"/><path class="cls-2" d="M664.13,40l3.93,13.23H624.81l-15.49-52h42.3l3.93,13.23h-25l1.82,6.09h22l3.76,12.64h-22l2,6.84Z"/></svg>